<?xml version="1.0" encoding="UTF-8"?><svg xmlns="http://www.w3.org/2000/svg" xmlns:xlink="http://www.w3.org/1999/xlink" height="508.3" preserveAspectRatio="xMidYMid meet" version="1.0" viewBox="-2.5 -1.0 553.3 508.3" width="553.3" zoomAndPan="magnify"><g id="change1_1"><path d="M1.9,2.1c-2.1,31.9-4.4,64.9,4.3,96c7,24.9,21.3,48.8,43.7,62.5c25.2,15.4,56.2,15.3,84.7,13.5 c28.3-1.7,57.7-4.9,85.2,3.8c12.9,4,24.7,11,34.2,20.6c8.8,8.9,15.4,19.6,20.5,31c10.5,23.9,14.1,50,16.8,75.7 c3,28.1,5.5,57,16.9,83.3c5.4,12.4,12.8,23.9,22.3,33.6c9.1,9.3,19.9,16.9,31.3,23.1c50.7,27.6,110.9,26.3,162.9,50.6 c6.6,3.1,13,6.6,19.1,10.5c1.6,1,7-1.3,4.6-2.8c-49.3-31.7-110.6-30.6-163.8-52.5c-24.4-10-47.1-25-61.7-47.4 c-15.6-24-20.4-53.1-23.6-81c-5.6-48-8.5-107.8-53.4-137.2c-23.7-15.6-53.4-17.1-80.9-16c-28.9,1.1-58.5,5.8-86.9-1.6 c-13.7-3.5-26.3-10.2-36.6-19.9c-9.4-8.9-16.8-19.9-22.3-31.7C6.1,87.6,4.9,55.9,6.3,25.2C6.7,17.2,7.2,9.3,7.7,1.3 C7.9-1,2.1,0.1,1.9,2.1L1.9,2.1z" fill="#231F20"/></g></svg>